{
  "asset": {
    "version": "2.0",
    "generator": "gltfeditor.com"
  },
  "buffers": [
    {
      "uri": "data:application/octet-stream;base64,",
      "byteLength": 144
    },
    {
      "uri": "data:application/octet-stream;base64,",
      "byteLength": 72
    },
    {
      "uri": "data:application/octet-stream;base64,",
      "byteLength": 144
    },
    {
      "uri": "data:application/octet-stream;base64,",
      "byteLength": 96
    },
    {
      "uri": "data:application/octet-stream;base64,",
      "byteLength": 50880
    },
    {
      "uri": "data:application/octet-stream;base64,",
      "byteLength": 29040
    },
    {
      "uri": "data:application/octet-stream;base64,",
      "byteLength": 48680
    },
    {
      "uri": "data:application/octet-stream;base64,",
      "byteLength": 29748
    },
    {
      "uri": "data:application/octet-stream;base64,",
      "byteLength": 144
    },
    {
      "uri": "data:application/octet-stream;base64,",
      "byteLength": 72
    },
    {
      "uri": "data:application/octet-stream;base64,",
      "byteLength": 144
    },
    {
      "uri": "data:application/octet-stream;base64,",
      "byteLength": 72
    },
    {
      "uri": "data:application/octet-stream;base64,",
      "byteLength": 144
    },
    {
      "uri": "data:application/octet-stream;base64,",
      "byteLength": 72
    }
  ],
  "bufferViews": [
    {
      "buffer": 0,
      "byteOffset": 24,
      "byteLength": 120,
      "target": 34962,
      "byteStride": 20
    },
    {
      "buffer": 1,
      "byteOffset": 0,
      "byteLength": 72,
      "target": 34962,
      "byteStride": 12
    },
    {
      "buffer": 0,
      "byteOffset": 0,
      "byteLength": 24,
      "target": 34963
    },
    {
      "buffer": 2,
      "byteOffset": 48,
      "byteLength": 96,
      "target": 34962,
      "byteStride": 12
    },
    {
      "buffer": 3,
      "byteOffset": 0,
      "byteLength": 96,
      "target": 34962,
      "byteStride": 12
    },
    {
      "buffer": 2,
      "byteOffset": 0,
      "byteLength": 48,
      "target": 34963
    },
    {
      "buffer": 4,
      "byteOffset": 21840,
      "byteLength": 29040,
      "target": 34962,
      "byteStride": 12
    },
    {
      "buffer": 5,
      "byteOffset": 0,
      "byteLength": 29040,
      "target": 34962,
      "byteStride": 12
    },
    {
      "buffer": 4,
      "byteOffset": 0,
      "byteLength": 21840,
      "target": 34963
    },
    {
      "buffer": 6,
      "byteOffset": 18932,
      "byteLength": 29748,
      "target": 34962,
      "byteStride": 12
    },
    {
      "buffer": 7,
      "byteOffset": 0,
      "byteLength": 29748,
      "target": 34962,
      "byteStride": 12
    },
    {
      "buffer": 6,
      "byteOffset": 0,
      "byteLength": 18930,
      "target": 34963
    },
    {
      "buffer": 8,
      "byteOffset": 24,
      "byteLength": 120,
      "target": 34962,
      "byteStride": 20
    },
    {
      "buffer": 9,
      "byteOffset": 0,
      "byteLength": 72,
      "target": 34962,
      "byteStride": 12
    },
    {
      "buffer": 8,
      "byteOffset": 0,
      "byteLength": 24,
      "target": 34963
    },
    {
      "buffer": 10,
      "byteOffset": 24,
      "byteLength": 120,
      "target": 34962,
      "byteStride": 20
    },
    {
      "buffer": 11,
      "byteOffset": 0,
      "byteLength": 72,
      "target": 34962,
      "byteStride": 12
    },
    {
      "buffer": 10,
      "byteOffset": 0,
      "byteLength": 24,
      "target": 34963
    },
    {
      "buffer": 12,
      "byteOffset": 24,
      "byteLength": 120,
      "target": 34962,
      "byteStride": 20
    },
    {
      "buffer": 13,
      "byteOffset": 0,
      "byteLength": 72,
      "target": 34962,
      "byteStride": 12
    },
    {
      "buffer": 12,
      "byteOffset": 0,
      "byteLength": 24,
      "target": 34963
    }
  ],
  "accessors": [
    {
      "bufferView": 0,
      "byteOffset": 0,
      "componentType": 5126,
      "normalized": false,
      "count": 6,
      "max": [
        1.4144501686096191,
        2.408895254135132,
        2.3043107986450195
      ],
      "min": [
        0.320034921169281,
        -2.408895254135132,
        -2.0226190090179443
      ],
      "type": "VEC3"
    },
    {
      "bufferView": 0,
      "byteOffset": 12,
      "componentType": 5126,
      "normalized": false,
      "count": 6,
      "max": [
        0.9788460731506348,
        0.9788460731506348
      ],
      "min": [
        0.021153844892978668,
        0.021153844892978668
      ],
      "type": "VEC2"
    },
    {
      "bufferView": 1,
      "byteOffset": 0,
      "componentType": 5126,
      "count": 6,
      "max": [
        -0.8695123195648193,
        0,
        0.18715809285640717
      ],
      "min": [
        -0.9893329739570618,
        -1.2290616524524012e-8,
        -0.4939112663269043
      ],
      "type": "VEC3"
    },
    {
      "bufferView": 2,
      "byteOffset": 0,
      "componentType": 5123,
      "normalized": false,
      "count": 12,
      "max": [
        5
      ],
      "min": [
        0
      ],
      "type": "SCALAR"
    },
    {
      "bufferView": 3,
      "byteOffset": 0,
      "componentType": 5126,
      "normalized": false,
      "count": 8,
      "max": [
        32.791343688964844,
        6.860588073730469,
        17.734228134155273
      ],
      "min": [
        32.598243713378906,
        0.17634181678295135,
        17.541126251220703
      ],
      "type": "VEC3"
    },
    {
      "bufferView": 4,
      "byteOffset": 0,
      "componentType": 5126,
      "count": 8,
      "max": [
        0.8944289684295654,
        0,
        0.8944254517555237
      ],
      "min": [
        -0.8944289684295654,
        0,
        -0.8944254517555237
      ],
      "type": "VEC3"
    },
    {
      "bufferView": 5,
      "byteOffset": 0,
      "componentType": 5123,
      "normalized": false,
      "count": 24,
      "max": [
        7
      ],
      "min": [
        0
      ],
      "type": "SCALAR"
    },
    {
      "bufferView": 6,
      "byteOffset": 0,
      "componentType": 5126,
      "normalized": false,
      "count": 2420,
      "max": [
        57.78515625,
        33.32206344604492,
        28.977970123291016
      ],
      "min": [
        -65.63521575927734,
        0.12461317330598831,
        -37.99191665649414
      ],
      "type": "VEC3"
    },
    {
      "bufferView": 7,
      "byteOffset": 0,
      "componentType": 5126,
      "count": 2420,
      "max": [
        0.9999875426292419,
        0.9999364614486694,
        0.9949056506156921
      ],
      "min": [
        -0.9999875426292419,
        -0.9999364614486694,
        -0.9965869784355164
      ],
      "type": "VEC3"
    },
    {
      "bufferView": 8,
      "byteOffset": 0,
      "componentType": 5123,
      "normalized": false,
      "count": 10920,
      "max": [
        2419
      ],
      "min": [
        0
      ],
      "type": "SCALAR"
    },
    {
      "bufferView": 9,
      "byteOffset": 0,
      "componentType": 5126,
      "normalized": false,
      "count": 2479,
      "max": [
        70.57674407958984,
        37.89999008178711,
        42.39554977416992
      ],
      "min": [
        -70.57674407958984,
        0,
        -42.39554977416992
      ],
      "type": "VEC3"
    },
    {
      "bufferView": 10,
      "byteOffset": 0,
      "componentType": 5126,
      "count": 2479,
      "max": [
        0.9999527931213379,
        1,
        1
      ],
      "min": [
        -0.9999527931213379,
        -0.9999424815177917,
        -1
      ],
      "type": "VEC3"
    },
    {
      "bufferView": 11,
      "byteOffset": 0,
      "componentType": 5123,
      "normalized": false,
      "count": 9465,
      "max": [
        2478
      ],
      "min": [
        0
      ],
      "type": "SCALAR"
    },
    {
      "bufferView": 12,
      "byteOffset": 0,
      "componentType": 5126,
      "normalized": false,
      "count": 6,
      "max": [
        1.4144501686096191,
        2.408895254135132,
        2.3043107986450195
      ],
      "min": [
        0.320034921169281,
        -2.408895254135132,
        -2.0226190090179443
      ],
      "type": "VEC3"
    },
    {
      "bufferView": 12,
      "byteOffset": 12,
      "componentType": 5126,
      "normalized": false,
      "count": 6,
      "max": [
        0.9788460731506348,
        0.9788460731506348
      ],
      "min": [
        0.021153844892978668,
        0.021153844892978668
      ],
      "type": "VEC2"
    },
    {
      "bufferView": 13,
      "byteOffset": 0,
      "componentType": 5126,
      "count": 6,
      "max": [
        -0.8695123195648193,
        0,
        0.18715809285640717
      ],
      "min": [
        -0.9893329739570618,
        -1.2290616524524012e-8,
        -0.4939112663269043
      ],
      "type": "VEC3"
    },
    {
      "bufferView": 14,
      "byteOffset": 0,
      "componentType": 5123,
      "normalized": false,
      "count": 12,
      "max": [
        5
      ],
      "min": [
        0
      ],
      "type": "SCALAR"
    },
    {
      "bufferView": 15,
      "byteOffset": 0,
      "componentType": 5126,
      "normalized": false,
      "count": 6,
      "max": [
        1.4144501686096191,
        2.408895254135132,
        2.3043107986450195
      ],
      "min": [
        0.320034921169281,
        -2.408895254135132,
        -2.0226190090179443
      ],
      "type": "VEC3"
    },
    {
      "bufferView": 15,
      "byteOffset": 12,
      "componentType": 5126,
      "normalized": false,
      "count": 6,
      "max": [
        0.9788460731506348,
        0.9788460731506348
      ],
      "min": [
        0.021153844892978668,
        0.021153844892978668
      ],
      "type": "VEC2"
    },
    {
      "bufferView": 16,
      "byteOffset": 0,
      "componentType": 5126,
      "count": 6,
      "max": [
        -0.8695123195648193,
        0,
        0.18715809285640717
      ],
      "min": [
        -0.9893329739570618,
        -1.2290616524524012e-8,
        -0.4939112663269043
      ],
      "type": "VEC3"
    },
    {
      "bufferView": 17,
      "byteOffset": 0,
      "componentType": 5123,
      "normalized": false,
      "count": 12,
      "max": [
        5
      ],
      "min": [
        0
      ],
      "type": "SCALAR"
    },
    {
      "bufferView": 18,
      "byteOffset": 0,
      "componentType": 5126,
      "normalized": false,
      "count": 6,
      "max": [
        1.4144501686096191,
        2.408895254135132,
        2.3043107986450195
      ],
      "min": [
        0.320034921169281,
        -2.408895254135132,
        -2.0226190090179443
      ],
      "type": "VEC3"
    },
    {
      "bufferView": 18,
      "byteOffset": 12,
      "componentType": 5126,
      "normalized": false,
      "count": 6,
      "max": [
        0.9788460731506348,
        0.9788460731506348
      ],
      "min": [
        0.021153844892978668,
        0.021153844892978668
      ],
      "type": "VEC2"
    },
    {
      "bufferView": 19,
      "byteOffset": 0,
      "componentType": 5126,
      "count": 6,
      "max": [
        -0.8695123195648193,
        0,
        0.18715809285640717
      ],
      "min": [
        -0.9893329739570618,
        -1.2290616524524012e-8,
        -0.4939112663269043
      ],
      "type": "VEC3"
    },
    {
      "bufferView": 20,
      "byteOffset": 0,
      "componentType": 5123,
      "normalized": false,
      "count": 12,
      "max": [
        5
      ],
      "min": [
        0
      ],
      "type": "SCALAR"
    }
  ],
  "scene": 0,
  "scenes": [
    {
      "nodes": [
        8
      ],
      "name": "refinery_light"
    }
  ],
  "nodes": [
    {
      "name": "logo.1",
      "matrix": [
        0.9848077297210693,
        -1.4901161193847656e-8,
        -0.1736481785774231,
        0,
        1.467477961369923e-8,
        1,
        -2.587559500000225e-9,
        0,
        0.1736481785774231,
        0,
        0.9848077297210693,
        0,
        -23.597820281982422,
        5.490061283111572,
        21.058547973632812,
        1
      ],
      "mesh": 0
    },
    {
      "name": "refinery",
      "mesh": 1
    },
    {
      "name": "refinery-blue",
      "mesh": 2
    },
    {
      "name": "refinery-light_gray",
      "mesh": 3
    },
    {
      "name": "refinery",
      "children": [
        1,
        2,
        3
      ],
      "matrix": [
        1,
        0,
        0,
        0,
        0,
        1,
        0,
        0,
        0,
        0,
        1,
        0,
        -2.1514978408813477,
        -0.0002457443915773183,
        4.487581729888916,
        1
      ]
    },
    {
      "name": "logo",
      "matrix": [
        0.9848077297210693,
        0,
        -0.1736481785774231,
        0,
        0,
        1,
        0,
        0,
        0.1736481785774231,
        0,
        0.9848077297210693,
        0,
        -23.597820281982422,
        5.490061283111572,
        -8.654168128967285,
        1
      ],
      "mesh": 4
    },
    {
      "name": "logo.2",
      "matrix": [
        -0.9848078489303589,
        0,
        0.1736481785774231,
        0,
        0,
        1,
        0,
        0,
        -0.1736481785774231,
        0,
        -0.9848078489303589,
        0,
        -14.151728630065918,
        5.490061283111572,
        -23.280040740966797,
        1
      ],
      "mesh": 5
    },
    {
      "name": "logo.3",
      "matrix": [
        -0.9848078489303589,
        0,
        0.1736481785774231,
        0,
        0,
        1,
        0,
        0,
        -0.1736481785774231,
        0,
        -0.9848078489303589,
        0,
        -14.120624542236328,
        5.490061283111572,
        6.397981643676758,
        1
      ],
      "mesh": 6
    },
    {
      "name": "Refinery light",
      "children": [
        0,
        4,
        5,
        6,
        7
      ]
    }
  ],
  "meshes": [
    {
      "primitives": [
        {
          "attributes": {
            "POSITION": 0,
            "TEXCOORD_0": 1,
            "NORMAL": 2
          },
          "material": 0,
          "mode": 4,
          "indices": 3
        }
      ]
    },
    {
      "primitives": [
        {
          "attributes": {
            "POSITION": 4,
            "NORMAL": 5
          },
          "material": 1,
          "mode": 4,
          "indices": 6
        }
      ]
    },
    {
      "primitives": [
        {
          "attributes": {
            "POSITION": 7,
            "NORMAL": 8
          },
          "material": 2,
          "mode": 4,
          "indices": 9
        }
      ]
    },
    {
      "primitives": [
        {
          "attributes": {
            "POSITION": 10,
            "NORMAL": 11
          },
          "material": 3,
          "mode": 4,
          "indices": 12
        }
      ]
    },
    {
      "primitives": [
        {
          "attributes": {
            "POSITION": 13,
            "TEXCOORD_0": 14,
            "NORMAL": 15
          },
          "material": 0,
          "mode": 4,
          "indices": 16
        }
      ]
    },
    {
      "primitives": [
        {
          "attributes": {
            "POSITION": 17,
            "TEXCOORD_0": 18,
            "NORMAL": 19
          },
          "material": 0,
          "mode": 4,
          "indices": 20
        }
      ]
    },
    {
      "primitives": [
        {
          "attributes": {
            "POSITION": 21,
            "TEXCOORD_0": 22,
            "NORMAL": 23
          },
          "material": 0,
          "mode": 4,
          "indices": 24
        }
      ]
    }
  ],
  "materials": [
    {
      "pbrMetallicRoughness": {
        "baseColorFactor": [
          0.8,
          0.8,
          0.8,
          1
        ],
        "metallicFactor": 1,
        "roughnessFactor": 1,
        "baseColorTexture": {
          "index": 0,
          "texCoord": 0
        }
      },
      "emissiveFactor": [
        0,
        0,
        0
      ],
      "alphaMode": "BLEND",
      "doubleSided": true
    },
    {
      "pbrMetallicRoughness": {
        "baseColorFactor": [
          1,
          1,
          1,
          1
        ],
        "metallicFactor": 1,
        "roughnessFactor": 1
      },
      "emissiveFactor": [
        0,
        0,
        0
      ],
      "alphaMode": "OPAQUE",
      "doubleSided": false
    },
    {
      "pbrMetallicRoughness": {
        "baseColorFactor": [
          0,
          0.9686274509803922,
          1,
          1
        ],
        "metallicFactor": 0,
        "roughnessFactor": 0.5
      },
      "emissiveFactor": [
        0,
        0,
        0
      ],
      "alphaMode": "OPAQUE",
      "doubleSided": true
    },
    {
      "pbrMetallicRoughness": {
        "baseColorFactor": [
          0.7490196078431373,
          0.7490196078431373,
          0.7490196078431373,
          1
        ],
        "metallicFactor": 0,
        "roughnessFactor": 0.5
      },
      "emissiveFactor": [
        0,
        0,
        0
      ],
      "alphaMode": "OPAQUE",
      "doubleSided": true
    }
  ],
  "textures": [
    {
      "sampler": 0,
      "source": 0
    }
  ],
  "samplers": [
    {
      "magFilter": 9729,
      "minFilter": 9729,
      "wrapS": 10497,
      "wrapT": 10497
    }
  ],
  "images": [
    {
      "uri": "data:image/png;base64,",
      "mimeType": "image/png"
    }
  ]
}